# xmcd
#
# Track frame offsets: 
#        150
#        21717
#        39315
#        57395
#        75110
#        90840
#        109432
#        126092
#        143360
#        161407
#        178560
#        193687
#        210437
#        228845
#        246575
#        264585
#        281755
#        299517
#
# Disc length: 4214 seconds
#
# Revision: 4
# Processed by: cddbd v1.5.2PL0 Copyright (c) Steve Scherf et al.
# Submitted via: ExactAudioCopy v0.95b4
#
DISCID=fa107412
DTITLE=Various Artist - Hugo's Mega Dance '97 [CD2)
DYEAR=1996
DGENRE=Dance
TTITLE0=Tic Tac Toe - Verpiß Dich (Ich vermiss' Dich)
TTITLE1=Ghetto People - In The Ghetto (feat. L-Viz)
TTITLE2=Down Low - Potion
TTITLE3=Xzibit - Paparazzi
TTITLE4=DJ Supreme - Tha Wildstyle
TTITLE5=Soultans - I Heard It Through The Grapevine
TTITLE6=Farahy - Wake Up (Ding A Dang Dong)
TTITLE7=Red 5 - Da Beat Goes...
TTITLE8=Taucher - Waters
TTITLE9=La Tour - Falling For Your Love
TTITLE10=Bürger Lars Dietrich - Ich bring Dich um
TTITLE11=Die Fantastischen Vier - Raus
TTITLE12=Mark Morrison - Trippin
TTITLE13=DJ Pierro - Another World
TTITLE14=Deskee - Let There Be House
TTITLE15=Armand Van Helden - The Funk Phenomena
TTITLE16=Groove Solution - Sweet Memories
TTITLE17=Jimi Tenor - Take Me Baby
EXTD=
EXTT0=[Tic Tac Toe]
EXTT1=[Ghetto People Feat. L-Viz]
EXTT2=[Dow Low]
EXTT3=[Xzibit]
EXTT4=[DJ Surpreme]
EXTT5=[Soultans]
EXTT6=[Farahy]
EXTT7=[Red 5]
EXTT8=[Taucher]
EXTT9=[La Tour]
EXTT10=[Bürger Lars Dietrich]
EXTT11=[Die Fantastischen Vier]
EXTT12=[Mark Morrison]
EXTT13=[DJ Pierro]
EXTT14=[Deskee]
EXTT15=[Armand Van Helden]
EXTT16=[Groove Solution]
EXTT17=[Jimi Tenor]
PLAYORDER=
